<?xml version="1.0" encoding="UTF-8" standalone="no"?>
<svg
   xmlns="http://www.w3.org/2000/svg"
   xmlns:sodipodi="http://sodipodi.sourceforge.net/DTD/sodipodi-0.dtd"
   xmlns:inkscape="http://www.inkscape.org/namespaces/inkscape"
   xmlns:dc="http://purl.org/dc/elements/1.1/"
   xmlns:cc="http://creativecommons.org/ns#"
   xmlns:rdf="http://www.w3.org/1999/02/22-rdf-syntax-ns#"
   viewBox="0 0 666.66669 666.66669"
   height="666.66669"
   width="666.66669"
   xml:space="preserve"
   id="svg2"
   version="1.1"
   sodipodi:docname="117064-OPGZ64-288.svg"
   inkscape:version="0.92.2 (5c3e80d, 2017-08-06)"><sodipodi:namedview
     pagecolor="#ffffff"
     bordercolor="#666666"
     borderopacity="1"
     objecttolerance="10"
     gridtolerance="10"
     guidetolerance="10"
     inkscape:pageopacity="0"
     inkscape:pageshadow="2"
     inkscape:window-width="1920"
     inkscape:window-height="1001"
     id="namedview269"
     showgrid="false"
     inkscape:zoom="2.0196773"
     inkscape:cx="333.33334"
     inkscape:cy="521.69651"
     inkscape:window-x="-9"
     inkscape:window-y="-9"
     inkscape:window-maximized="1"
     inkscape:current-layer="g10" /><metadata
     id="metadata8"><rdf:RDF><cc:Work
         rdf:about=""><dc:format>image/svg+xml</dc:format><dc:type
           rdf:resource="http://purl.org/dc/dcmitype/StillImage" /></cc:Work></rdf:RDF></metadata><defs
     id="defs6"><clipPath
       id="clipPath20"
       clipPathUnits="userSpaceOnUse"><path
         id="path18"
         d="M 0,500 H 500 V 0 H 0 Z" /></clipPath><clipPath
       id="clipPath160"
       clipPathUnits="userSpaceOnUse"><path
         id="path158"
         d="M 0,0 H 500 V 500 H 0 Z" /></clipPath><clipPath
       id="clipPath180"
       clipPathUnits="userSpaceOnUse"><path
         id="path178"
         d="M 380.886,174.913 H 548.828 V 0.605469 H 380.886 Z" /></clipPath><clipPath
       id="clipPath288"
       clipPathUnits="userSpaceOnUse"><path
         id="path286"
         d="M -5.3335,436.289 H 173.574 V 411.848 H -5.3335 Z" /></clipPath><clipPath
       id="clipPath304"
       clipPathUnits="userSpaceOnUse"><path
         id="path302"
         d="M 134.583,333.884 H 325.527 V 264.395 H 134.583 Z" /></clipPath><clipPath
       id="clipPath320"
       clipPathUnits="userSpaceOnUse"><path
         id="path318"
         d="M 317.101,478.147 H 512.393 V 428.76 H 317.101 Z" /></clipPath><clipPath
       id="clipPath336"
       clipPathUnits="userSpaceOnUse"><path
         id="path334"
         d="m 285.357,397.395 h 65.03 v -42.814 h -65.03 z" /></clipPath><clipPath
       id="clipPath376"
       clipPathUnits="userSpaceOnUse"><path
         id="path374"
         d="M -92,196.184 H 340 V 21 H -92 Z" /></clipPath><clipPath
       id="clipPath412"
       clipPathUnits="userSpaceOnUse"><path
         id="path410"
         d="M 0,500 H 500 V 0 H 0 Z" /></clipPath><clipPath
       id="clipPath440"
       clipPathUnits="userSpaceOnUse"><path
         id="path438"
         d="M 184.985,142.083 H 294.172 V 110.83 H 184.985 Z" /></clipPath><clipPath
       id="clipPath456"
       clipPathUnits="userSpaceOnUse"><path
         id="path454"
         d="m 147.857,186.128 h -0.082 c 0,0 -5.839,-26.272 45.067,-75.297 v 0 c 22.817,21.973 34.215,39.361 39.868,51.876 v 0 c 3.567,6.47 5.606,13.902 5.606,21.814 v 0 c 0,25.003 -20.268,45.271 -45.272,45.271 v 0 c -24.461,0 -44.333,-19.411 -45.187,-43.664 m 26.091,-1.607 c 0,10.547 8.549,19.096 19.096,19.096 v 0 c 10.548,0 19.099,-8.549 19.099,-19.096 v 0 c 0,-10.548 -8.551,-19.097 -19.099,-19.097 v 0 c -10.547,0 -19.096,8.549 -19.096,19.097" /></clipPath><linearGradient
       id="linearGradient468"
       spreadMethod="pad"
       gradientTransform="matrix(-7.1e-6,163.10986,163.10986,7.1e-6,192.94385,70.412109)"
       gradientUnits="userSpaceOnUse"
       y2="0"
       x2="1"
       y1="0"
       x1="0"><stop
         id="stop462"
         offset="0"
         style="stop-opacity:1;stop-color:#00b83d" /><stop
         id="stop464"
         offset="0.503067"
         style="stop-opacity:1;stop-color:#55cd48" /><stop
         id="stop466"
         offset="1"
         style="stop-opacity:1;stop-color:#a3dc39" /></linearGradient><clipPath
       id="clipPath478"
       clipPathUnits="userSpaceOnUse"><path
         id="path476"
         d="m 369.52,454.603 h -0.039 c 0,0 -4.14,-13.749 19.324,-36.915 v 0 h 2.769 c 11.187,10.773 16.775,19.298 19.546,25.433 v 0 c 1.749,3.173 2.749,6.815 2.749,10.694 v 0 c 0,12.259 -9.936,22.195 -22.195,22.195 v 0 c -11.993,0 -21.735,-9.516 -22.154,-21.407 m 12.724,-0.788 c 0,4.793 3.884,8.677 8.675,8.677 v 0 c 4.792,0 8.676,-3.884 8.676,-8.677 v 0 c 0,-4.792 -3.884,-8.675 -8.676,-8.675 v 0 c -4.791,0 -8.675,3.883 -8.675,8.675" /></clipPath><linearGradient
       id="linearGradient488"
       spreadMethod="pad"
       gradientTransform="matrix(44.668945,0,0,-44.668945,369.19922,446.84961)"
       gradientUnits="userSpaceOnUse"
       y2="0"
       x2="1"
       y1="0"
       x1="0"><stop
         id="stop484"
         offset="0"
         style="stop-opacity:1;stop-color:#ab0634" /><stop
         id="stop486"
         offset="1"
         style="stop-opacity:1;stop-color:#820024" /></linearGradient><clipPath
       id="clipPath498"
       clipPathUnits="userSpaceOnUse"><path
         id="path496"
         d="M 0,500 H 500 V 0 H 0 Z" /></clipPath><clipPath
       id="clipPath506"
       clipPathUnits="userSpaceOnUse"><path
         id="path504"
         d="m 384.954,433.01 h 53.529 v -15.322 h -53.529 z" /></clipPath><clipPath
       id="clipPath522"
       clipPathUnits="userSpaceOnUse"><path
         id="path520"
         d="m 366.751,454.603 h -0.041 c 0,0 -2.862,-12.879 22.095,-36.915 v 0 c 11.186,10.773 16.774,19.298 19.546,25.433 v 0 c 1.748,3.173 2.747,6.815 2.747,10.694 v 0 c 0,12.259 -9.935,22.195 -22.194,22.195 v 0 c -11.992,0 -21.736,-9.516 -22.153,-21.407 m 12.791,-0.788 c 0,5.171 4.191,9.363 9.362,9.363 v 0 c 5.171,0 9.362,-4.192 9.362,-9.363 v 0 c 0,-5.17 -4.191,-9.362 -9.362,-9.362 v 0 c -5.171,0 -9.362,4.192 -9.362,9.362" /></clipPath><linearGradient
       id="linearGradient534"
       spreadMethod="pad"
       gradientTransform="matrix(-3.5e-6,79.965569,79.965569,3.5e-6,388.85449,397.87354)"
       gradientUnits="userSpaceOnUse"
       y2="0"
       x2="1"
       y1="0"
       x1="0"><stop
         id="stop528"
         offset="0"
         style="stop-opacity:1;stop-color:#d11242" /><stop
         id="stop530"
         offset="0.503067"
         style="stop-opacity:1;stop-color:#ed1849" /><stop
         id="stop532"
         offset="1"
         style="stop-opacity:1;stop-color:#ed1849" /></linearGradient></defs><g
     transform="matrix(1.3333333,0,0,-1.3333333,0,666.66667)"
     id="g10"><path
       id="path12"
       style="fill:#efeae4;fill-opacity:1;fill-rule:nonzero;stroke:none"
       d="M 0,0 H 500 V 500 H 0 Z" /><g
       transform="translate(223.7031,452.0371)"
       id="g146"><path
         id="path148"
         style="fill:#c8e0ae;fill-opacity:1;fill-rule:nonzero;stroke:none"
         d="m 0,0 150.271,19.653 -14.443,3.49 H -59.793 Z" /></g><g
       transform="translate(174.8052,371.041)"
       id="g150"><path
         id="path152"
         style="fill:#c8e0ae;fill-opacity:1;fill-rule:nonzero;stroke:none"
         d="m 0,0 79.616,15.759 180.356,-121.354 -35.324,-16.732 -95.785,81.824 z" /></g><g
       id="g154"><g
         clip-path="url(#clipPath160)"
         id="g156"><g
           transform="translate(-31.3335,443.0752)"
           id="g162"><path
             id="path164"
             style="fill:#a4c3e5;fill-opacity:1;fill-rule:nonzero;stroke:none"
             d="m 0,0 17.855,24.229 c 0,0 100.634,5.85 120.145,2.823 19.994,-3.102 25.052,0.26 35.297,0 10.267,-0.26 25.553,-6.757 17.461,-12.09 -9.863,-6.293 -18.849,-6.352 -34.836,-4.33 -15.747,1.992 -23.308,4.231 -35.925,0.286 C 87.039,-0.08 6.791,0.601 0,0" /></g><g
           transform="translate(483.9102,311.3125)"
           id="g166"><path
             id="path168"
             style="fill:#a4c3e5;fill-opacity:1;fill-rule:nonzero;stroke:none"
             d="m 0,0 c -12.346,5.538 -26.641,6.318 -34.923,15.488 -7.965,8.82 -11.336,10.259 -17.46,13.812 -6.03,3.498 -13.527,0.591 -25.531,4.192 -16.663,5.347 -24.996,1.217 -15.663,-11.172 9.019,-13.063 32.285,-12.906 37.452,-18.352 5.289,-5.573 10.768,-31.029 52.852,-17.127 0,0 14.868,4.659 3.273,13.159" /></g><g
           transform="translate(433.2979,182.8721)"
           id="g170"><path
             id="path172"
             style="fill:#c8b39e;fill-opacity:1;fill-rule:nonzero;stroke:none"
             d="m 0,0 -63.476,-39.763 -39.868,20.603 74.25,44.3 z" /></g><g
           id="g174"><g
             id="g176" /><g
             id="g188"><g
               style="opacity:0.60000598"
               id="g186"
               clip-path="url(#clipPath180)"><g
                 id="g184"
                 transform="translate(548.8281,0.6055)"><path
                   id="path182"
                   style="fill:#efeae4;fill-opacity:1;fill-rule:nonzero;stroke:none"
                   d="m 0,0 -152.562,65.779 23.771,47.877 -39.151,21.147 59.695,39.505 94.865,-80.63 z" /></g></g></g></g><g
           transform="translate(178.1768,262.1035)"
           id="g190"><path
             id="path192"
             style="fill:#c8b39e;fill-opacity:1;fill-rule:nonzero;stroke:none"
             d="m 0,0 -18.883,5.681 8.44,10.985 18.523,-5.405 z" /></g><g
           transform="translate(150.6338,223.5508)"
           id="g194"><path
             id="path196"
             style="fill:#c8b39e;fill-opacity:1;fill-rule:nonzero;stroke:none"
             d="m 0,0 -20.083,6.669 9.879,12.865 19.681,-6.322 z" /></g><g
           transform="translate(219.1582,251.1006)"
           id="g198"><path
             id="path200"
             style="fill:#c8b39e;fill-opacity:1;fill-rule:nonzero;stroke:none"
             d="m 0,0 -19.975,5.65 7.481,11.615 19.556,-5.369 z" /></g><g
           transform="translate(207.5659,231.1523)"
           id="g202"><path
             id="path204"
             style="fill:#c8b39e;fill-opacity:1;fill-rule:nonzero;stroke:none"
             d="m 0,0 -20.67,6.137 8.108,12.598 20.223,-5.818 z" /></g><g
           transform="translate(128.6357,256.8682)"
           id="g206"><path
             id="path208"
             style="fill:#c8b39e;fill-opacity:1;fill-rule:nonzero;stroke:none"
             d="M 0,0 -18.652,5.511 -9.048,16.848 9.249,11.609 Z" /></g><g
           transform="translate(188.7676,334.2549)"
           id="g210"><path
             id="path212"
             style="fill:#c8b39e;fill-opacity:1;fill-rule:nonzero;stroke:none"
             d="M 0,0 -18.652,4.049 -9.048,15.386 9.249,9.855 Z" /></g><g
           transform="translate(446.1426,208.8682)"
           id="g214"><path
             id="path216"
             style="fill:#c8b39e;fill-opacity:1;fill-rule:nonzero;stroke:none"
             d="M 0,0 -16.646,13.871 9.936,30.569 25.194,17.738 Z" /></g><g
           transform="translate(47.7754,275.2695)"
           id="g218"><path
             id="path220"
             style="fill:#c8b39e;fill-opacity:1;fill-rule:nonzero;stroke:none"
             d="M 0,0 -14.096,8.293 -1.745,17.466 12.28,9.523 Z" /></g><g
           transform="translate(22.5757,290.1396)"
           id="g222"><path
             id="path224"
             style="fill:#c8b39e;fill-opacity:1;fill-rule:nonzero;stroke:none"
             d="M 0,0 -14.096,8.293 -1.745,17.466 12.28,9.523 Z" /></g><g
           transform="translate(83.1929,332.1582)"
           id="g226"><path
             id="path228"
             style="fill:#c8b39e;fill-opacity:1;fill-rule:nonzero;stroke:none"
             d="m 0,0 -13.343,5.045 31.818,15.358 10.47,-3.448 z" /></g><g
           transform="translate(195.0161,210.2275)"
           id="g230"><path
             id="path232"
             style="fill:#c8b39e;fill-opacity:1;fill-rule:nonzero;stroke:none"
             d="m 0,0 -21.378,6.673 8.802,13.672 20.903,-6.313 z" /></g><g
           transform="translate(370.8311,447.1631)"
           id="g234"><path
             id="path236"
             style="fill:#c8b39e;fill-opacity:1;fill-rule:nonzero;stroke:none"
             d="M 0,0 76.169,11.743 88.366,6.487 140.023,11.31 140.836,3.483 20.215,-8.505 Z" /></g><g
           transform="translate(360.7676,456.0986)"
           id="g238"><path
             id="path240"
             style="fill:#c8b39e;fill-opacity:1;fill-rule:nonzero;stroke:none"
             d="m 0,0 -31.013,-4.543 -5.813,1.838 30.9,4.481 z" /></g><g
           transform="translate(413.6484,464.8799)"
           id="g242"><path
             id="path244"
             style="fill:#c8b39e;fill-opacity:1;fill-rule:nonzero;stroke:none"
             d="m 0,0 -31.013,-4.543 -5.813,1.837 30.9,4.482 z" /></g><g
           transform="translate(471.3994,475.6006)"
           id="g246"><path
             id="path248"
             style="fill:#c8b39e;fill-opacity:1;fill-rule:nonzero;stroke:none"
             d="m 0,0 -31.013,-4.543 -5.813,1.837 30.9,4.482 z" /></g><g
           transform="translate(305.8447,447.6587)"
           id="g250"><path
             id="path252"
             style="fill:#c8b39e;fill-opacity:1;fill-rule:nonzero;stroke:none"
             d="m 0,0 -33.002,-4.842 -5.6,1.958 32.872,4.775 z" /></g><g
           transform="translate(145.0625,441.8569)"
           id="g254"><path
             id="path256"
             style="fill:#c8b39e;fill-opacity:1;fill-rule:nonzero;stroke:none"
             d="M 0,0 29.172,-1.583 25.565,-4.662 -4.462,-2.849 Z" /></g><g
           transform="translate(97.7676,444.5195)"
           id="g258"><path
             id="path260"
             style="fill:#c8b39e;fill-opacity:1;fill-rule:nonzero;stroke:none"
             d="M 0,0 28.757,-1.565 24.673,-4.61 -4.896,-2.818 Z" /></g><g
           transform="translate(17.001,375.9644)"
           id="g262"><path
             id="path264"
             style="fill:#c8b39e;fill-opacity:1;fill-rule:nonzero;stroke:none"
             d="M 0,0 64.767,8.948 70.054,-1.167 0.531,-14.541 Z" /></g><g
           transform="translate(172.8218,398.1191)"
           id="g266"><path
             id="path268"
             style="fill:#c8b39e;fill-opacity:1;fill-rule:nonzero;stroke:none"
             d="M 0,0 47.213,9.054 52.953,3.789 3.512,-7.356 Z" /></g><g
           transform="translate(365.3457,415.2656)"
           id="g270"><path
             id="path272"
             style="fill:#c8b39e;fill-opacity:1;fill-rule:nonzero;stroke:none"
             d="M 0,0 15.825,0.461 26.596,-7.626 10.686,-8.137 Z" /></g><g
           transform="translate(301.4111,430.7114)"
           id="g274"><path
             id="path276"
             style="fill:#c8b39e;fill-opacity:1;fill-rule:nonzero;stroke:none"
             d="M 0,0 11.537,1.773 21.326,-5.512 6.853,-6.195 Z" /></g><g
           transform="translate(409.4385,416.1802)"
           id="g278"><path
             id="path280"
             style="fill:#c8b39e;fill-opacity:1;fill-rule:nonzero;stroke:none"
             d="M 0,0 14.199,0.557 26.49,-7.561 12.449,-8.239 Z" /></g><g
           id="g282"><g
             id="g284" /><g
             id="g296"><g
               id="g294"
               clip-path="url(#clipPath288)"><g
                 id="g292"
                 transform="translate(164.959,425.0376)"><path
                   id="path290"
                   style="fill:#efeae4;fill-opacity:1;fill-rule:nonzero;stroke:none"
                   d="m 0,0 8.615,8.126 -74.252,3.125 -102.988,-3.883 -1.667,-14.454 73.017,-6.103 53.027,13.224 z" /></g></g></g></g><g
           id="g298"><g
             id="g300" /><g
             id="g312"><g
               id="g310"
               clip-path="url(#clipPath304)"><g
                 id="g308"
                 transform="translate(134.5825,299.981)"><path
                   id="path306"
                   style="fill:#efeae4;fill-opacity:1;fill-rule:nonzero;stroke:none"
                   d="m 0,0 30.776,29.079 72.462,-14.877 12.286,19.701 44.747,-11.357 30.674,-26.668 -61.429,-31.464 z" /></g></g></g></g><g
           id="g314"><g
             id="g316" /><g
             id="g328"><g
               style="opacity:0.60000598"
               id="g326"
               clip-path="url(#clipPath320)"><g
                 id="g324"
                 transform="translate(317.1006,444.7646)"><path
                   id="path322"
                   style="fill:#efeae4;fill-opacity:1;fill-rule:nonzero;stroke:none"
                   d="M 0,0 195.292,33.382 194.944,0.035 27.319,-16.004 Z" /></g></g></g></g><g
           id="g330"><g
             id="g332" /><g
             id="g344"><g
               style="opacity:0.60000598"
               id="g342"
               clip-path="url(#clipPath336)"><g
                 id="g340"
                 transform="translate(285.3574,393.436)"><path
                   id="path338"
                   style="fill:#efeae4;fill-opacity:1;fill-rule:nonzero;stroke:none"
                   d="M 0,0 12.948,3.958 34.682,0.939 65.029,-38.855 Z" /></g></g></g></g><g
           transform="translate(382.6221,434.3643)"
           id="g346"><path
             id="path348"
             style="fill:#ffffff;fill-opacity:1;fill-rule:nonzero;stroke:none"
             d="m 0,0 -40.51,-3.905 -20.057,13.333 28.229,4.693 z m -77.931,-13.494 -19.328,16.823 31.067,5.164 30.589,-20.683 z m -58.403,26.27 c 1.044,0 38.203,5.059 106.765,14.525 l 20.058,-5.937 -23.993,-3.938 h -0.002 L -133.93,0.946 c -1.555,-0.255 -2.487,-1.233 -2.078,-2.188 0.345,-0.804 1.53,-1.336 2.829,-1.336 0.254,0 0.514,0.019 0.772,0.063 l 29.429,4.892 18.094,-16.084 -58.352,-1.797 c -1.703,-0.052 -3.058,-0.984 -3.026,-2.089 0.031,-1.079 1.374,-1.926 3.029,-1.926 0.049,0 0.102,10e-4 0.154,0.002 l 143.301,4.47 42.605,-29.816 c 1.03,-0.719 2.341,-1.113 3.463,-1.113 0.624,0 1.187,0.121 1.612,0.373 1.19,0.707 0.849,2.177 -0.751,3.278 L 7.19,-14.83 l 36.083,1.126 51.488,-35.055 c 1.174,-0.8 2.649,-1.251 3.849,-1.251 0.571,0 1.078,0.102 1.461,0.316 1.186,0.665 0.729,2.152 -1.01,3.316 l -49.071,32.883 55.031,1.406 c 1.648,0.051 2.311,0.96 1.482,2.023 -0.821,1.055 -2.81,1.866 -4.431,1.814 l -130.451,-3.716 -7.053,4.687 166.477,15.992 c 1.484,0.145 1.947,1.035 1.045,1.983 -0.896,0.94 -2.803,1.58 -4.27,1.444 L 7.149,0.688 -26.341,15.119 131.427,42.381 c 1.262,0.211 1.537,1.008 0.618,1.778 -0.912,0.765 -2.659,1.215 -3.913,1.01 L -2.847,22.458 -22.661,28.255 c 11.689,1.615 89.675,15.018 102.905,16.849 1.282,0.177 1.694,0.923 0.929,1.662 C 80.41,47.5 78.77,47.952 77.497,47.778 65.514,46.14 -15.012,32.412 -30.914,30.243 -30.922,30.242 -30.93,30.241 -30.937,30.24 -78.028,23.819 -133.383,16.303 -136.589,15.981 c -1.384,-0.084 -2.478,-0.761 -2.499,-1.587 -0.02,-0.892 1.21,-1.618 2.754,-1.618" /></g><g
           transform="translate(341.3018,199.5439)"
           id="g350"><path
             id="path352"
             style="fill:#ffffff;fill-opacity:1;fill-rule:nonzero;stroke:none"
             d="M 0,0 -69.294,63.69 -15.814,91.4 52.449,31.629 Z M -31.904,-19.237 -75.599,6.909 -61.275,43.523 -9.274,-5.592 Z m -33.451,-20.174 -71.222,23.827 40.377,80.665 16.706,-4.35 10.478,-9.896 -18.183,-43.943 c -1.143,-2.76 -0.142,-6.079 2.315,-7.586 l 41.49,-25.474 z m -142.655,133.588 25.484,-6.632 -56.197,-68.953 -29.854,9.988 z m -21.403,-78.701 55.307,69.877 28.495,-7.415 -50.22,-73.699 z m 43.382,-14.513 49.17,74.699 31.569,-8.216 -41.638,-79.565 z m 7.753,125.416 73.729,-15.279 c 1.864,-0.386 3.817,0.393 4.728,1.882 l 12.078,19.736 39.214,-12.673 25.711,-22.513 -55.071,-27.891 -95.038,24.231 c -0.382,0.158 -0.781,0.269 -1.201,0.306 l -27.426,6.992 z m -113.869,-60.78 -82.779,-9.002 18.343,50.888 30.139,10.989 60.768,-30.304 z m -2.469,65.417 57.189,-18.759 -20.4,-17.394 -57.518,27.984 z m 293.778,55.126 21.495,-2.856 c 2.807,-4.726 10.019,-14.533 14.557,-20.604 l -19.013,3.221 z m 44.859,-24.953 c -5.317,6.848 -12.273,16.059 -15.663,21.074 l 21.317,-2.834 14.851,-21.714 z m 71.458,-12.107 -42.359,7.177 -15.595,22.127 41.778,-5.552 z m 91.076,-30.152 c -2.29,1.741 -5.266,2.456 -6.676,1.608 l -27.181,-16.392 -68.577,41.189 45.532,-7.833 c 0.334,-0.058 0.655,-0.086 0.955,-0.086 0.865,0 1.567,0.235 1.982,0.679 0.551,0.596 0.521,1.503 -0.081,2.463 l -28.754,45.886 c -0.842,1.342 -3.046,2.436 -4.932,2.453 h -0.045 c -1.854,0 -2.707,-1.058 -1.899,-2.39 l 25.442,-41.973 -18.172,3.079 -19.421,27.682 c -0.803,1.144 -2.484,2.073 -4.131,2.289 l -49.181,6.444 c -0.015,0.002 -0.024,0.003 -0.037,0.005 l -56.693,7.426 -10.991,13.056 c -0.935,1.112 -2.934,1.643 -4.482,1.192 -1.548,-0.452 -2.066,-1.724 -1.144,-2.849 l 33.099,-40.377 c 0.688,-0.842 1.824,-1.467 3.046,-1.678 L 89.617,147.83 166.879,100.637 60.291,36.36 -43.677,125.261 c -0.474,0.405 -1.044,0.72 -1.661,0.915 l -155.705,49.42 c -1.646,0.523 -3.908,-0.138 -5.066,-1.481 -1.165,-1.354 -0.773,-2.895 0.89,-3.432 l 26.333,-8.511 -51.368,-43.798 -19.876,6.385 43.918,26.702 c 1.107,0.673 1.826,1.643 1.931,2.599 0.104,0.95 -0.414,1.761 -1.386,2.177 l -28.343,12.118 c -1.524,0.654 -3.91,0.089 -5.344,-1.263 -1.446,-1.362 -1.387,-3.017 0.149,-3.686 l 24.288,-10.599 -42.02,-25.095 c -0.271,-0.162 -0.523,-0.337 -0.756,-0.523 l -32.648,10.488 c -0.928,0.298 -2.171,0.195 -3.408,-0.285 l -60.18,-22.543 9.309,25.826 c 0.597,1.653 -0.781,2.687 -3.076,2.319 -2.299,-0.368 -4.678,-2.005 -5.311,-3.669 l -33.527,-87.889 c -0.02,-0.035 -0.045,-0.065 -0.063,-0.098 -0.271,-0.505 -0.426,-0.978 -0.519,-1.426 l -107,-280.499 c -2.187,-5.728 -1.04,-9.671 2.508,-9.671 0.561,0 1.181,0.099 1.855,0.307 4.933,1.504 10.861,8.115 13.221,14.661 l 98.252,272.582 85.014,9.239 c 1.465,0.095 3.078,0.818 4.392,1.965 l 116.551,101.556 77.172,-24.939 -10.393,-16.363 -72.193,14.687 c -1.612,0.329 -3.504,-0.29 -4.677,-1.528 L -280.778,28.056 c -1.347,-1.421 -2.147,-3.163 -2.162,-4.717 -0.017,-1.561 0.764,-2.754 2.116,-3.218 l 131.448,-45.113 c 0.366,-0.457 0.785,-0.87 1.298,-1.176 0.733,-0.434 1.533,-0.639 2.342,-0.639 0.395,0 0.791,0.066 1.183,0.161 l 78.816,-27.05 c 0.535,-0.182 1.079,-0.274 1.621,-0.274 0.889,0 1.764,0.248 2.55,0.737 l 32.998,20.472 c 0.339,0.158 0.661,0.358 0.958,0.597 l 30.591,18.98 c 0.476,0.189 0.917,0.45 1.306,0.812 l 57.598,35.737 156.601,-137.118 c 2.252,-1.972 4.545,-2.984 6.345,-2.984 1.541,0 2.719,0.736 3.205,2.229 1.056,3.218 -1.478,8.697 -5.608,12.228 L 69.767,28.257 l 138.43,85.896 c 1.412,0.875 0.667,3.019 -1.642,4.777" /></g><g
           transform="translate(61.3853,410.3184)"
           id="g354"><path
             id="path356"
             style="fill:#ffffff;fill-opacity:1;fill-rule:nonzero;stroke:none"
             d="m 0,0 71.487,-8.333 c 0.172,-0.02 0.346,-0.029 0.521,-0.029 1.566,0 3.221,0.767 3.867,1.841 0.712,1.188 -0.077,2.299 -1.757,2.493 l -60.052,6.898 44.985,9.97 43.961,-0.035 h 0.006 0.011 l 77.4,-0.062 h 0.003 c 1.678,0 3.052,0.859 3.072,1.912 0.021,1.047 -1.306,1.891 -2.962,1.893 l -71.625,0.056 23.648,22.034 c 0.856,0.815 0.495,1.791 -0.802,2.184 -1.291,0.393 -3.037,0.059 -3.903,-0.747 L 110.958,24.708 68.953,26.465 86.292,37.143 c 1.175,0.723 1.276,1.729 0.233,2.248 -1.037,0.517 -2.825,0.359 -4.001,-0.355 l -20.27,-12.29 -23.193,0.969 c -0.13,0.005 -0.261,0.005 -0.395,0 L 8.844,26.497 42.737,39.875 c 1.459,0.575 2.115,1.572 1.471,2.226 -0.64,0.649 -2.326,0.716 -3.777,0.151 L -1.008,26.095 -79.704,22.915 c -1.657,-0.067 -3.531,-0.916 -4.189,-1.903 -0.661,-0.993 0.158,-1.751 1.841,-1.678 l 119.046,4.862 70.215,-2.973 -4.96,-4.613 -42.089,0.034 h -0.004 c -0.37,0 -0.756,-0.043 -1.139,-0.127 L 2.579,4.163 -94.385,12.451 c -1.594,0.13 -3.737,-0.65 -4.798,-1.751 -1.068,-1.109 -0.634,-2.122 0.977,-2.256 L -16.288,1.353 -58.88,-21.143 c -1.953,-1.031 -2.872,-2.554 -2.04,-3.401 0.359,-0.365 0.988,-0.543 1.745,-0.543 0.999,0 2.218,0.31 3.332,0.907 L -9.262,0.769 Z" /></g><g
           transform="translate(515.3857,388.064)"
           id="g358"><path
             id="path360"
             style="fill:#ffd478;fill-opacity:1;fill-rule:nonzero;stroke:none"
             d="m 0,0 -216.593,22.778 c -1.046,0.123 -2.096,0.094 -3.081,-0.086 l -35.435,-6.484 -20.312,12.771 15.363,11.318 c 1.228,0.902 1.754,2.085 1.46,3.245 -0.293,1.149 -1.368,2.165 -2.948,2.792 l -90.183,36.677 c -2.297,0.908 -3.914,1.512 -6.137,0.127 -2.248,-1.401 -0.733,-1.896 1.573,-2.825 l 81.264,-38.215 -13.328,-9.401 -236.572,-27.296 c -4.48,-0.542 -11.734,-6.172 -13.352,-9.125 -1.451,-2.652 -2.174,-7.582 1.51,-7.582 0.488,0 1.012,0.035 1.563,0.104 l 247.737,34.93 16.454,-10.797 -287.327,-59.199 c -5.462,-1.159 -11.164,-5.141 -12.733,-8.957 -1.295,-3.149 -2.547,-9.266 1.301,-9.266 0.899,0 1.9,0.113 2.986,0.353 L -258.799,4.915 225.352,-319.85 c 5.797,-3.848 10.979,-5.771 14.701,-5.771 3.967,0 11.295,5.928 10.823,10.18 -0.897,8.09 -0.865,20.481 -12.473,27.707 l -480.72,295.899 26.268,4.965 226.141,-29.262 c 4.79,-0.584 5.487,3.628 3.706,6.743 C 12.051,-6.329 4.547,-0.529 0,0" /></g><g
           transform="translate(513.6113,-11.9355)"
           id="g362"><path
             id="path364"
             style="fill:#ffffff;fill-opacity:1;fill-rule:nonzero;stroke:none"
             d="m 0,0 c -1.445,0 -3.053,0.344 -4.727,1.07 l -568.894,235.332 c -2.768,1.2 -2.837,4.078 -0.2,6.41 2.605,2.303 6.899,3.227 9.634,2.08 L -0.107,16.409 C 5.479,14.068 6.732,10.044 6.486,5.213 6.311,1.736 3.512,0 0,0" /></g><g
           transform="translate(32.4487,193.4287)"
           id="g366"><path
             id="path368"
             style="fill:#ffffff;fill-opacity:1;fill-rule:nonzero;stroke:none"
             d="M 0,0 -9.564,3.015 9.769,68.405 19.333,65.39 Z" /></g><g
           id="g370"><g
             id="g372" /><g
             id="g384"><g
               style="opacity:0.60000598"
               id="g382"
               clip-path="url(#clipPath376)"><g
                 id="g380"
                 transform="translate(-28.9424,196.1836)"><path
                   id="path378"
                   style="fill:#efeae4;fill-opacity:1;fill-rule:nonzero;stroke:none"
                   d="m 0,0 368.942,-158.184 -432,-17 z" /></g></g></g></g></g></g><g
       transform="translate(265.2939,396.0254)"
       id="g386"><path
         id="path388"
         style="fill:#00568b;fill-opacity:1;fill-rule:nonzero;stroke:none"
         d="m 0,0 -113.952,-25.627 v 3.5 L 0,3.5 Z" /></g><g
       transform="translate(390.5781,418.0864)"
       id="g390"><path
         id="path392"
         style="fill:#00568b;fill-opacity:1;fill-rule:nonzero;stroke:none"
         d="M 0,0 -148.245,-4.42 -150.6,-2.999 0,2.521 Z" /></g><g
       transform="translate(251.3906,398.3706)"
       id="g394"><path
         id="path396"
         style="fill:#0068b3;fill-opacity:1;fill-rule:nonzero;stroke:none"
         d="M 0,0 -25.691,17.641 V 20.87 L 0,3.282 Z" /></g><g
       transform="translate(173.6665,359.6665)"
       id="g398"><path
         id="path400"
         style="fill:#00568b;fill-opacity:1;fill-rule:nonzero;stroke:none"
         d="M 0,0 -124.047,-106.208 -126,-104 0,4.917 Z" /></g><g
       transform="translate(187.4678,117.7002)"
       id="g402"><path
         id="path404"
         style="fill:#00568b;fill-opacity:1;fill-rule:nonzero;stroke:none"
         d="m 0,0 -162.367,75.404 -1.418,3.5 L -0.353,7.47 Z" /></g><g
       id="g406"><g
         clip-path="url(#clipPath412)"
         id="g408"><g
           transform="translate(194.9287,131.4385)"
           id="g414"><path
             id="path416"
             style="fill:#008de8;fill-opacity:1;fill-rule:nonzero;stroke:none"
             d="m 0,0 -164.059,68.691 16.797,55.537 126,108.918 -22.324,9.314 113.951,25.627 -25.316,15.562 150.6,5.52 c 0,0 -2.892,2.481 -2.922,2.48 L 30.771,287.802 56.462,270.214 -62.715,245.005 -32.575,231.612 -152.421,125.714 -171.246,65.166 -7.814,-6.269 Z" /></g><g
           transform="translate(195.4834,124.5625)"
           id="g418"><path
             id="path420"
             style="fill:#0068b3;fill-opacity:1;fill-rule:nonzero;stroke:none"
             d="m 0,0 -8.016,-6.862 -0.353,7.469 7.814,6.269 z" /></g><g
           transform="translate(160.2588,361.2559)"
           id="g422"><path
             id="path424"
             style="fill:#0068b3;fill-opacity:1;fill-rule:nonzero;stroke:none"
             d="M 0,0 -28.257,11.487 V 15.25 L 2.095,1.794 Z" /></g><g
           transform="translate(49.6191,253.459)"
           id="g426"><path
             id="path428"
             style="fill:#0068b3;fill-opacity:1;fill-rule:nonzero;stroke:none"
             d="m 0,0 -17.209,-54.042 -1.541,0.713 16.797,55.537 z" /></g><g
           transform="translate(197.1528,166.8242)"
           id="g430"><path
             id="path432"
             style="fill:#3c882b;fill-opacity:1;fill-rule:nonzero;stroke:none"
             d="m 0,0 c -9.772,0 -17.694,7.922 -17.694,17.696 0,9.774 7.922,17.698 17.694,17.698 9.775,0 17.698,-7.924 17.698,-17.698 C 17.698,7.922 9.775,0 0,0 m 1.338,-55.994 c 22.818,21.973 34.215,39.362 39.869,51.877 3.566,6.47 5.605,13.901 5.605,21.813 0,25.003 -20.268,45.272 -45.271,45.272 -24.462,0 -44.334,-19.411 -45.187,-43.664 h -0.083 c 10e-4,0 -8.44,-28.045 39.418,-75.298 z" /></g><g
           id="g434"><g
             id="g436" /><g
             id="g448"><g
               style="opacity:0.60000598"
               id="g446"
               clip-path="url(#clipPath440)"><g
                 id="g444"
                 transform="translate(228.0996,125.1729)"><path
                   id="path442"
                   style="fill:#d1d3d4;fill-opacity:1;fill-rule:nonzero;stroke:none"
                   d="m 0,0 c -10.546,0 -13.605,2.246 -6.832,5.017 6.772,2.77 20.811,5.016 31.357,5.016 10.548,0 13.61,-2.246 6.836,-5.016 C 24.588,2.246 10.549,0 0,0 m 41.334,16.91 c -24.462,0 -56.799,-5.099 -73.225,-11.471 h -0.083 c 0,0 -22.708,-6.902 -3.284,-19.782 36.928,5.773 59.49,10.341 73.182,13.629 7.721,1.699 14.531,3.652 19.611,5.731 16.057,6.568 8.803,11.893 -16.201,11.893" /></g></g></g></g></g></g><g
       id="g450"><g
         clip-path="url(#clipPath456)"
         id="g452"><g
           id="g458"><g
             id="g460"><path
               id="path470"
               style="fill:url(#linearGradient468);stroke:none"
               d="m 147.857,186.128 h -0.082 c 0,0 -5.839,-26.272 45.067,-75.297 v 0 c 22.817,21.973 34.215,39.361 39.868,51.876 v 0 c 3.567,6.47 5.606,13.902 5.606,21.814 v 0 c 0,25.003 -20.268,45.271 -45.272,45.271 v 0 c -24.461,0 -44.333,-19.411 -45.187,-43.664 m 26.091,-1.607 c 0,10.547 8.549,19.096 19.096,19.096 v 0 c 10.548,0 19.099,-8.549 19.099,-19.096 v 0 c 0,-10.548 -8.551,-19.097 -19.099,-19.097 v 0 c -10.547,0 -19.096,8.549 -19.096,19.097" /></g></g></g></g><g
       id="g472"><g
         clip-path="url(#clipPath478)"
         id="g474"><g
           id="g480"><g
             id="g482"><path
               id="path490"
               style="fill:url(#linearGradient488);stroke:none"
               d="m 369.52,454.603 h -0.039 c 0,0 -4.14,-13.749 19.324,-36.915 v 0 h 2.769 c 11.187,10.773 16.775,19.298 19.546,25.433 v 0 c 1.749,3.173 2.749,6.815 2.749,10.694 v 0 c 0,12.259 -9.936,22.195 -22.195,22.195 v 0 c -11.993,0 -21.735,-9.516 -22.154,-21.407 m 12.724,-0.788 c 0,4.793 3.884,8.677 8.675,8.677 v 0 c 4.792,0 8.676,-3.884 8.676,-8.677 v 0 c 0,-4.792 -3.884,-8.675 -8.676,-8.675 v 0 c -4.791,0 -8.675,3.883 -8.675,8.675" /></g></g></g></g><g
       id="g492"><g
         clip-path="url(#clipPath498)"
         id="g494"><g
           id="g500"><g
             id="g502" /><g
             id="g514"><g
               style="opacity:0.60000598"
               id="g512"
               clip-path="url(#clipPath506)"><g
                 id="g510"
                 transform="translate(406.0908,424.7202)"><path
                   id="path508"
                   style="fill:#d1d3d4;fill-opacity:1;fill-rule:nonzero;stroke:none"
                   d="m 0,0 c -5.171,0 -6.67,1.101 -3.35,2.459 3.32,1.358 10.203,2.46 15.373,2.46 5.172,0 6.671,-1.102 3.352,-2.46 C 12.054,1.101 5.172,0 0,0 M 20.263,8.29 C 8.271,8.29 -7.582,5.79 -15.635,2.667 h -0.041 c 0,0 -11.133,-3.384 -1.609,-9.699 18.103,2.83 29.165,5.07 35.876,6.682 3.786,0.833 7.125,1.79 9.616,2.809 7.871,3.221 4.315,5.831 -7.944,5.831" /></g></g></g></g></g></g><g
       id="g516"><g
         clip-path="url(#clipPath522)"
         id="g518"><g
           id="g524"><g
             id="g526"><path
               id="path536"
               style="fill:url(#linearGradient534);stroke:none"
               d="m 366.751,454.603 h -0.041 c 0,0 -2.862,-12.879 22.095,-36.915 v 0 c 11.186,10.773 16.774,19.298 19.546,25.433 v 0 c 1.748,3.173 2.747,6.815 2.747,10.694 v 0 c 0,12.259 -9.935,22.195 -22.194,22.195 v 0 c -11.992,0 -21.736,-9.516 -22.153,-21.407 m 12.791,-0.788 c 0,5.171 4.191,9.363 9.362,9.363 v 0 c 5.171,0 9.362,-4.192 9.362,-9.363 v 0 c 0,-5.17 -4.191,-9.362 -9.362,-9.362 v 0 c -5.171,0 -9.362,4.192 -9.362,9.362" /></g></g></g></g></g></svg>