<?xml version="1.0" encoding="iso-8859-1"?>
<!-- Generator: Adobe Illustrator 19.0.0, SVG Export Plug-In . SVG Version: 6.00 Build 0)  -->
<svg version="1.1" id="Capa_1" xmlns="http://www.w3.org/2000/svg" xmlns:xlink="http://www.w3.org/1999/xlink" x="0px" y="0px"
	 viewBox="0 0 512 512" style="enable-background:new 0 0 512 512;" xml:space="preserve">
<path style="fill:#303C42;" d="M461.594,85.74L312.26,43.074c-1.931-0.547-3.957-0.54-5.854,0L160,84.904L13.594,43.074
	c-3.187-0.906-6.677-0.271-9.354,1.74C1.573,46.834,0,49.99,0,53.334v320c0,4.76,3.156,8.948,7.74,10.26l149.333,42.667
	c0.958,0.271,1.948,0.406,2.927,0.406c0.991,0,1.977-0.135,2.927-0.406l146.406-41.831l146.406,41.831
	c0.958,0.271,1.948,0.406,2.927,0.406c2.292,0,4.552-0.74,6.427-2.146c2.667-2.021,4.24-5.177,4.24-8.521v-320
	C469.333,91.24,466.177,87.053,461.594,85.74z"/>
<polygon style="fill:#E6E6E6;" points="149.333,401.855 21.333,365.292 21.333,67.48 149.333,104.042 "/>
<polygon style="opacity:0.1;enable-background:new    ;" points="149.333,401.855 21.333,365.292 21.333,67.48 149.333,104.042 "/>
<polygon style="fill:#E6E6E6;" points="298.667,365.285 170.667,401.856 170.667,104.05 298.667,67.479 "/>
<polygon style="opacity:0.2;fill:#FFFFFF;enable-background:new    ;" points="298.667,365.285 170.667,401.856 170.667,104.05 
	298.667,67.479 "/>
<polygon style="fill:#E6E6E6;" points="448,401.855 320,365.292 320,67.48 448,104.042 "/>
<polygon style="opacity:0.1;enable-background:new    ;" points="448,401.855 320,365.292 320,67.48 448,104.042 "/>
<path style="fill:#303C42;" d="M426.667,469.334c3.313,0,6.438-1.542,8.458-4.177C443,454.886,512,363.594,512,320.001
	c0-47.052-38.271-85.333-85.333-85.333s-85.333,38.281-85.333,85.333c0,43.594,69,134.885,76.875,145.156
	C420.229,467.792,423.354,469.334,426.667,469.334z"/>
<path style="fill:#E53935;" d="M426.667,256.001c35.292,0,64,28.708,64,64c0,27.156-40.542,88.552-64,120.813
	c-23.458-32.26-64-93.656-64-120.813C362.667,284.709,391.375,256.001,426.667,256.001z"/>
<path style="opacity:0.2;fill:#FFFFFF;enable-background:new    ;" d="M426.667,256.001c-35.292,0-64,28.708-64,64
	c0,27.156,40.542,88.552,64,120.813c-16.862-32.26-46.004-93.656-46.004-120.813C380.663,284.709,401.298,256.001,426.667,256.001z"
	/>
<path style="opacity:0.1;enable-background:new    ;" d="M426.667,256.001c25.368,0,46.004,28.708,46.004,64
	c0,27.156-29.142,88.552-46.004,120.813c23.458-32.26,64-93.656,64-120.813C490.667,284.709,461.958,256.001,426.667,256.001z"/>
<path style="fill:#303C42;" d="M448,320.001c0-11.76-9.563-21.333-21.333-21.333c-11.771,0-21.333,9.573-21.333,21.333
	c0,11.76,9.563,21.333,21.333,21.333C438.438,341.334,448,331.761,448,320.001z M437.333,320.001L437.333,320.001L437.333,320.001
	L437.333,320.001z"/>
<linearGradient id="SVGID_1_" gradientUnits="userSpaceOnUse" x1="-48.0365" y1="685.9016" x2="-23.1997" y2="674.3196" gradientTransform="matrix(21.3333 0 0 -21.3333 996.3334 14744.54)">
	<stop  offset="0" style="stop-color:#FFFFFF;stop-opacity:0.2"/>
	<stop  offset="1" style="stop-color:#FFFFFF;stop-opacity:0"/>
</linearGradient>
<path style="fill:url(#SVGID_1_);" d="M469.174,416.674C489.82,384.751,512,344.719,512,320.001
	c0-31.443-17.284-58.663-42.667-73.465V96.001c0-4.76-3.156-8.948-7.74-10.26L312.26,43.074c-1.931-0.547-3.957-0.54-5.854,0
	L160,84.904L13.594,43.074c-3.187-0.906-6.677-0.271-9.354,1.74C1.573,46.834,0,49.99,0,53.334v320c0,4.76,3.156,8.948,7.74,10.26
	l149.333,42.667c0.958,0.271,1.948,0.406,2.927,0.406c0.991,0,1.977-0.135,2.927-0.406l146.406-41.831l66.495,18.999
	c18.526,30.246,38.371,56.499,42.38,61.728c2.021,2.635,5.146,4.177,8.458,4.177s6.438-1.542,8.458-4.177
	c3.012-3.928,14.975-19.746,28.59-40.176c0.434-0.24,0.977-0.158,1.379-0.46C467.572,422.644,468.969,419.752,469.174,416.674z"/>
<g>
</g>
<g>
</g>
<g>
</g>
<g>
</g>
<g>
</g>
<g>
</g>
<g>
</g>
<g>
</g>
<g>
</g>
<g>
</g>
<g>
</g>
<g>
</g>
<g>
</g>
<g>
</g>
<g>
</g>
</svg>
